<svg xmlns="http://www.w3.org/2000/svg" xmlns:xlink="http://www.w3.org/1999/xlink" width="500" zoomAndPan="magnify" viewBox="0 0 375 374.999991" height="500" preserveAspectRatio="xMidYMid meet" version="1.0"><defs><clipPath id="3960350c80"><path d="M 73 145 L 319 145 L 319 335 L 73 335 Z M 73 145 " clip-rule="nonzero"/></clipPath><clipPath id="b16c03b479"><path d="M 266.210938 370.300781 L 37.347656 280.09375 L 90.703125 144.730469 L 319.566406 234.9375 Z M 266.210938 370.300781 " clip-rule="nonzero"/></clipPath><clipPath id="edab477999"><path d="M 266.210938 370.300781 L 37.347656 280.09375 L 90.703125 144.730469 L 319.566406 234.9375 Z M 266.210938 370.300781 " clip-rule="nonzero"/></clipPath><clipPath id="ec19b48e1b"><path d="M 34 31 L 257 31 L 257 330 L 34 330 Z M 34 31 " clip-rule="nonzero"/></clipPath><clipPath id="3e6e96e830"><path d="M -4.671875 275.171875 L 90.0625 -8.6875 L 257.960938 47.347656 L 163.222656 331.203125 Z M -4.671875 275.171875 " clip-rule="nonzero"/></clipPath><clipPath id="6ba52ac432"><path d="M -4.671875 275.171875 L 90.0625 -8.6875 L 257.960938 47.347656 L 163.222656 331.203125 Z M -4.671875 275.171875 " clip-rule="nonzero"/></clipPath><clipPath id="b72ed64a67"><path d="M 230.363281 168.1875 L 319.636719 168.1875 L 319.636719 346.734375 L 230.363281 346.734375 Z M 230.363281 168.1875 " clip-rule="nonzero"/></clipPath><clipPath id="adc4ad4fdf"><path d="M 230.363281 212.824219 C 230.363281 188.171875 250.347656 168.1875 275 168.1875 C 299.652344 168.1875 319.636719 188.171875 319.636719 212.824219 L 319.636719 302.097656 C 319.636719 326.75 299.652344 346.734375 275 346.734375 C 250.347656 346.734375 230.363281 326.75 230.363281 302.097656 Z M 230.363281 212.824219 " clip-rule="nonzero"/></clipPath></defs><g clip-path="url(#3960350c80)"><g clip-path="url(#b16c03b479)"><g clip-path="url(#edab477999)"><path fill="#66023c" d="M 82.398438 166.433594 L 89.433594 148.582031 C 89.535156 148.324219 89.660156 148.078125 89.808594 147.84375 C 89.957031 147.609375 90.128906 147.394531 90.320312 147.195312 C 90.511719 146.996094 90.722656 146.816406 90.949219 146.660156 C 91.175781 146.5 91.417969 146.367188 91.671875 146.257812 C 91.925781 146.144531 92.1875 146.0625 92.457031 146.003906 C 92.726562 145.945312 93 145.914062 93.277344 145.910156 C 93.554688 145.90625 93.832031 145.929688 94.101562 145.976562 C 94.375 146.027344 94.640625 146.105469 94.898438 146.207031 L 315.644531 233.214844 C 315.902344 233.316406 316.144531 233.441406 316.378906 233.589844 C 316.613281 233.738281 316.828125 233.910156 317.027344 234.101562 C 317.230469 234.292969 317.40625 234.503906 317.566406 234.730469 C 317.722656 234.957031 317.859375 235.199219 317.96875 235.453125 C 318.078125 235.707031 318.164062 235.96875 318.222656 236.238281 C 318.28125 236.507812 318.3125 236.785156 318.316406 237.058594 C 318.320312 237.335938 318.296875 237.613281 318.246094 237.882812 C 318.195312 238.15625 318.121094 238.421875 318.015625 238.679688 L 310.980469 256.53125 C 310.242188 258.398438 309.460938 260.25 308.632812 262.082031 C 307.804688 263.914062 306.933594 265.726562 306.015625 267.515625 C 305.097656 269.304688 304.136719 271.070312 303.132812 272.8125 C 302.128906 274.554688 301.085938 276.269531 299.996094 277.960938 C 298.90625 279.652344 297.78125 281.316406 296.609375 282.949219 C 295.441406 284.585938 294.230469 286.191406 292.984375 287.765625 C 291.734375 289.34375 290.449219 290.886719 289.125 292.398438 C 287.800781 293.914062 286.4375 295.390625 285.042969 296.835938 C 283.644531 298.285156 282.214844 299.695312 280.746094 301.070312 C 279.28125 302.445312 277.78125 303.785156 276.25 305.085938 C 274.71875 306.390625 273.15625 307.652344 271.5625 308.878906 C 269.96875 310.101562 268.34375 311.289062 266.691406 312.433594 C 265.039062 313.578125 263.359375 314.683594 261.652344 315.746094 C 259.949219 316.8125 258.214844 317.832031 256.460938 318.808594 C 254.703125 319.789062 252.921875 320.722656 251.121094 321.613281 C 249.320312 322.503906 247.496094 323.351562 245.652344 324.152344 C 243.808594 324.953125 241.945312 325.707031 240.0625 326.417969 C 238.183594 327.128906 236.285156 327.792969 234.371094 328.40625 C 232.457031 329.023438 230.53125 329.59375 228.589844 330.117188 C 226.648438 330.636719 224.695312 331.113281 222.730469 331.539062 C 220.765625 331.964844 218.789062 332.34375 216.808594 332.671875 C 214.824219 333 212.832031 333.28125 210.835938 333.511719 C 208.839844 333.746094 206.839844 333.925781 204.832031 334.058594 C 202.824219 334.195312 200.816406 334.277344 198.808594 334.3125 C 196.796875 334.347656 194.789062 334.332031 192.777344 334.269531 C 190.769531 334.203125 188.761719 334.089844 186.757812 333.929688 C 184.753906 333.765625 182.753906 333.554688 180.761719 333.292969 C 178.769531 333.03125 176.78125 332.722656 174.804688 332.363281 C 172.824219 332.007812 170.855469 331.601562 168.898438 331.144531 C 166.941406 330.691406 164.992188 330.1875 163.058594 329.636719 C 161.125 329.085938 159.207031 328.488281 157.304688 327.84375 C 155.398438 327.199219 153.511719 326.511719 151.640625 325.773438 C 149.769531 325.035156 147.917969 324.253906 146.085938 323.425781 C 144.253906 322.597656 142.445312 321.722656 140.65625 320.808594 C 138.867188 319.890625 137.101562 318.929688 135.359375 317.925781 C 133.617188 316.921875 131.898438 315.875 130.210938 314.789062 C 128.519531 313.699219 126.855469 312.570312 125.21875 311.402344 C 123.585938 310.230469 121.980469 309.023438 120.402344 307.773438 C 118.828125 306.527344 117.28125 305.238281 115.769531 303.914062 C 114.257812 302.589844 112.777344 301.230469 111.332031 299.832031 C 109.886719 298.4375 108.476562 297.003906 107.101562 295.539062 C 105.722656 294.074219 104.386719 292.574219 103.082031 291.042969 C 101.78125 289.507812 100.515625 287.945312 99.292969 286.351562 C 98.066406 284.757812 96.882812 283.136719 95.734375 281.484375 C 94.589844 279.832031 93.484375 278.152344 92.421875 276.445312 C 91.359375 274.738281 90.339844 273.007812 89.359375 271.25 C 88.382812 269.496094 87.449219 267.714844 86.558594 265.914062 C 85.667969 264.109375 84.820312 262.289062 84.019531 260.445312 C 83.21875 258.597656 82.460938 256.738281 81.753906 254.855469 C 81.042969 252.976562 80.378906 251.078125 79.761719 249.164062 C 79.144531 247.25 78.574219 245.324219 78.054688 243.382812 C 77.53125 241.441406 77.058594 239.488281 76.632812 237.523438 C 76.207031 235.558594 75.828125 233.582031 75.5 231.597656 C 75.167969 229.617188 74.890625 227.625 74.65625 225.628906 C 74.425781 223.632812 74.242188 221.628906 74.109375 219.625 C 73.976562 217.617188 73.894531 215.609375 73.859375 213.597656 C 73.824219 211.589844 73.839844 209.578125 73.902344 207.570312 C 73.964844 205.558594 74.078125 203.554688 74.242188 201.550781 C 74.40625 199.546875 74.617188 197.546875 74.875 195.554688 C 75.136719 193.558594 75.445312 191.574219 75.804688 189.59375 C 76.164062 187.617188 76.570312 185.648438 77.023438 183.691406 C 77.480469 181.730469 77.980469 179.785156 78.53125 177.851562 C 79.082031 175.917969 79.679688 174 80.324219 172.09375 C 80.96875 170.191406 81.660156 168.304688 82.398438 166.433594 Z M 82.398438 166.433594 " fill-opacity="1" fill-rule="nonzero"/></g></g></g><g clip-path="url(#ec19b48e1b)"><g clip-path="url(#3e6e96e830)"><g clip-path="url(#6ba52ac432)"><path fill="#7c3aed" d="M 230.9375 38.78125 L 253.066406 46.164062 C 253.386719 46.269531 253.691406 46.40625 253.984375 46.570312 C 254.277344 46.738281 254.550781 46.929688 254.808594 47.152344 C 255.0625 47.371094 255.292969 47.613281 255.5 47.878906 C 255.707031 48.144531 255.882812 48.429688 256.035156 48.730469 C 256.183594 49.03125 256.304688 49.34375 256.394531 49.667969 C 256.480469 49.996094 256.539062 50.324219 256.558594 50.660156 C 256.582031 50.996094 256.574219 51.332031 256.53125 51.664062 C 256.488281 52 256.410156 52.324219 256.304688 52.644531 L 164.972656 326.296875 C 164.867188 326.617188 164.734375 326.921875 164.566406 327.214844 C 164.402344 327.507812 164.207031 327.78125 163.988281 328.035156 C 163.769531 328.292969 163.523438 328.523438 163.257812 328.730469 C 162.992188 328.933594 162.710938 329.113281 162.410156 329.265625 C 162.105469 329.414062 161.792969 329.535156 161.46875 329.621094 C 161.144531 329.710938 160.8125 329.765625 160.480469 329.789062 C 160.144531 329.8125 159.808594 329.804688 159.472656 329.757812 C 159.140625 329.714844 158.8125 329.640625 158.496094 329.53125 L 136.363281 322.148438 C 134.046875 321.375 131.746094 320.542969 129.46875 319.65625 C 127.191406 318.769531 124.9375 317.828125 122.707031 316.828125 C 120.472656 315.832031 118.269531 314.78125 116.085938 313.675781 C 113.90625 312.570312 111.757812 311.410156 109.632812 310.199219 C 107.507812 308.988281 105.417969 307.726562 103.355469 306.410156 C 101.292969 305.097656 99.265625 303.734375 97.273438 302.320312 C 95.277344 300.90625 93.320312 299.445312 91.398438 297.933594 C 89.476562 296.425781 87.589844 294.867188 85.746094 293.265625 C 83.898438 291.664062 82.09375 290.019531 80.328125 288.328125 C 78.5625 286.636719 76.839844 284.902344 75.160156 283.125 C 73.480469 281.351562 71.84375 279.535156 70.253906 277.679688 C 68.660156 275.824219 67.117188 273.929688 65.617188 272 C 64.121094 270.066406 62.671875 268.097656 61.269531 266.097656 C 59.867188 264.09375 58.515625 262.058594 57.214844 259.988281 C 55.914062 257.917969 54.664062 255.820312 53.464844 253.6875 C 52.265625 251.558594 51.121094 249.398438 50.03125 247.210938 C 48.9375 245.027344 47.898438 242.8125 46.914062 240.574219 C 45.929688 238.339844 45.003906 236.078125 44.128906 233.792969 C 43.257812 231.511719 42.441406 229.207031 41.679688 226.882812 C 40.921875 224.558594 40.21875 222.21875 39.574219 219.863281 C 38.929688 217.503906 38.34375 215.132812 37.816406 212.746094 C 37.285156 210.359375 36.816406 207.960938 36.40625 205.550781 C 35.996094 203.140625 35.644531 200.722656 35.351562 198.296875 C 35.0625 195.867188 34.828125 193.433594 34.65625 190.996094 C 34.484375 188.558594 34.371094 186.117188 34.320312 183.671875 C 34.265625 181.230469 34.273438 178.785156 34.34375 176.34375 C 34.410156 173.898438 34.535156 171.457031 34.722656 169.019531 C 34.910156 166.582031 35.15625 164.152344 35.464844 161.726562 C 35.769531 159.300781 36.136719 156.886719 36.5625 154.480469 C 36.988281 152.070312 37.472656 149.675781 38.015625 147.292969 C 38.558594 144.910156 39.160156 142.539062 39.816406 140.1875 C 40.476562 137.832031 41.195312 135.496094 41.96875 133.175781 C 42.742188 130.859375 43.570312 128.558594 44.457031 126.28125 C 45.34375 124.003906 46.285156 121.75 47.285156 119.519531 C 48.28125 117.285156 49.332031 115.082031 50.4375 112.898438 C 51.542969 110.71875 52.703125 108.566406 53.914062 106.445312 C 55.125 104.320312 56.390625 102.230469 57.703125 100.167969 C 59.015625 98.105469 60.382812 96.078125 61.792969 94.085938 C 63.207031 92.089844 64.671875 90.132812 66.179688 88.210938 C 67.691406 86.289062 69.246094 84.402344 70.847656 82.558594 C 72.449219 80.710938 74.097656 78.90625 75.789062 77.140625 C 77.480469 75.375 79.210938 73.652344 80.988281 71.972656 C 82.761719 70.292969 84.578125 68.65625 86.433594 67.066406 C 88.289062 65.472656 90.183594 63.929688 92.117188 62.429688 C 94.046875 60.933594 96.015625 59.484375 98.019531 58.082031 C 100.019531 56.679688 102.058594 55.328125 104.125 54.027344 C 106.195312 52.726562 108.296875 51.476562 110.425781 50.277344 C 112.554688 49.078125 114.714844 47.933594 116.902344 46.84375 C 119.089844 45.75 121.300781 44.710938 123.539062 43.726562 C 125.777344 42.742188 128.035156 41.816406 130.320312 40.941406 C 132.605469 40.070312 134.90625 39.253906 137.230469 38.492188 C 139.554688 37.734375 141.894531 37.03125 144.253906 36.386719 C 146.609375 35.742188 148.984375 35.15625 151.371094 34.628906 C 153.757812 34.097656 156.15625 33.628906 158.5625 33.21875 C 160.972656 32.808594 163.390625 32.457031 165.820312 32.164062 C 168.246094 31.875 170.679688 31.640625 173.117188 31.46875 C 175.554688 31.296875 177.996094 31.183594 180.441406 31.132812 C 182.886719 31.078125 185.328125 31.085938 187.773438 31.15625 C 190.214844 31.222656 192.65625 31.347656 195.09375 31.535156 C 197.53125 31.722656 199.960938 31.96875 202.386719 32.277344 C 204.8125 32.582031 207.230469 32.949219 209.636719 33.375 C 212.042969 33.800781 214.4375 34.285156 216.820312 34.828125 C 219.207031 35.371094 221.574219 35.972656 223.929688 36.628906 C 226.28125 37.289062 228.617188 38.007812 230.9375 38.78125 Z M 230.9375 38.78125 " fill-opacity="1" fill-rule="nonzero"/></g></g></g><g clip-path="url(#b72ed64a67)"><g clip-path="url(#adc4ad4fdf)"><path fill="#5e17eb" d="M 230.363281 346.734375 L 230.363281 168.1875 L 319.636719 168.1875 L 319.636719 346.734375 Z M 230.363281 346.734375 " fill-opacity="1" fill-rule="nonzero"/></g></g></svg>